# xmcd CD database file
#
# Track frame offsets:
#	150
#	21120
#	43180
#	62482
#	80857
#	105207
#	121495
#	145740
#	163525
#	184250
#	205412
#	224090
#	241310
#	261795
#	281307
#	303920
#
# Disc length: 4302 seconds
#
# Revision: 0
# Processed by: cddbd v1.5.2PL0 Copyright (c) Steve Scherf et al.
# Submitted via: CD2WAV32(JP) R3.22
#
DISCID=e610cc10
DTITLE=島谷ひとみ - BEST and COVERS Disc1
DYEAR=2009
DGENRE=JPop
TTITLE0=Viola
TTITLE1=Jewel of Kiss
TTITLE2=ANGELUS-アンジェラス-
TTITLE3=Garnet Moon
TTITLE4=~Mermaid~
TTITLE5=Falco~ファルコ~
TTITLE6=真昼の月
TTITLE7=春待人
TTITLE8=Destiny-太陽の花-
TTITLE9=PASIO
TTITLE10=Dragonfly
TTITLE11=Neva Eva
TTITLE12=深紅
TTITLE13=泣きたいなら
TTITLE14=雨の日には 雨の中を 風の日には 風の中を
TTITLE15=SMILES
EXTD=
EXTT0=
EXTT1=
EXTT2=
EXTT3=
EXTT4=
EXTT5=
EXTT6=
EXTT7=
EXTT8=
EXTT9=
EXTT10=
EXTT11=
EXTT12=
EXTT13=
EXTT14=
EXTT15=
PLAYORDER=
